<svg id="Layer_1" data-name="Layer 1" xmlns="http://www.w3.org/2000/svg" viewBox="0 0 228.19 175.97"><path d="M570.55,424a42.35,42.35,0,0,1,30.55,11.76,2.36,2.36,0,0,1,.34,3.31,2.29,2.29,0,0,1-.21.23l-9.85,10.24a2.22,2.22,0,0,1-3.13,0l0,0a25.79,25.79,0,0,0-17-6.45c-14.27,0-24.74,11.88-24.74,26s10.6,25.66,24.86,25.66a26.61,26.61,0,0,0,16.91-6.07,2.51,2.51,0,0,1,3.29.13l9.84,10.49a2.52,2.52,0,0,1-.13,3.41A43.25,43.25,0,0,1,570.56,515,45.28,45.28,0,0,1,525,470v-.38A45.49,45.49,0,0,1,570.36,424h.21" transform="translate(-525 -424)" style="fill:#1c3040"/><path d="M655.12,424a42.39,42.39,0,0,1,30.55,11.76,2.34,2.34,0,0,1,.35,3.3,2.29,2.29,0,0,1-.21.23L676,449.55a2.22,2.22,0,0,1-3.13,0l0,0a25.79,25.79,0,0,0-17-6.45c-14.27,0-24.74,11.88-24.74,26s10.6,25.66,24.86,25.66a26.61,26.61,0,0,0,16.91-6.07,2.5,2.5,0,0,1,3.29.13l9.85,10.49a2.53,2.53,0,0,1-.13,3.41A43.31,43.31,0,0,1,655.15,515a45.28,45.28,0,0,1-45.56-45v-.39A45.49,45.49,0,0,1,654.94,424h.21" transform="translate(-525 -424)" style="fill:#1c3040"/><path d="M701,427.7a2.39,2.39,0,0,1,2.39-2.41h15a2.49,2.49,0,0,1,2.39,2.41v67.48h30a2.4,2.4,0,0,1,2.39,2.4v13.78a2.39,2.39,0,0,1-2.38,2.4H703.34a2.39,2.39,0,0,1-2.4-2.39V427.7Z" transform="translate(-525 -424)" style="fill:#1c3040"/><path d="M532.93,556.44a13.08,13.08,0,0,0,1.71,1,13.76,13.76,0,0,0,2.45,1,10.8,10.8,0,0,0,3.12.42,11,11,0,0,0,3.16-.45,8.41,8.41,0,0,0,2.66-1.33,6.6,6.6,0,0,0,1.84-2.13,5.77,5.77,0,0,0,.69-2.84,6,6,0,0,0-2.32-5,12,12,0,0,0-2.72-1.63c-1.06-.46-2.24-.93-3.54-1.38a21.2,21.2,0,0,1-2.62-1,8.86,8.86,0,0,1-2-1.21,4.68,4.68,0,0,1-1.29-1.57,4.79,4.79,0,0,1-.44-2.11,4.73,4.73,0,0,1,.35-1.69,4.45,4.45,0,0,1,1.13-1.63,6.35,6.35,0,0,1,2-1.23,8,8,0,0,1,3-.49,8.39,8.39,0,0,1,2.1.26,14.45,14.45,0,0,1,1.76.59,11.34,11.34,0,0,1,1.25.61l.52.32a.52.52,0,0,0,.84-.19l.3-.49a.48.48,0,0,0,.08-.51.81.81,0,0,0-.23-.29,12.57,12.57,0,0,0-1.87-1,14.27,14.27,0,0,0-2.09-.68,10.91,10.91,0,0,0-2.63-.3,10.13,10.13,0,0,0-3.83.64,7.45,7.45,0,0,0-2.54,1.65,6.67,6.67,0,0,0-1.44,2.18,6.1,6.1,0,0,0-.46,2.24,6.55,6.55,0,0,0,.54,2.79,6.13,6.13,0,0,0,1.49,2,9.33,9.33,0,0,0,2.32,1.48c.9.41,1.92.81,3,1.19s2.19.77,3.11,1.18a10.92,10.92,0,0,1,2.33,1.36,5.77,5.77,0,0,1,1.48,1.71,4.55,4.55,0,0,1,.51,2.2,4.48,4.48,0,0,1-.51,2.16,4.85,4.85,0,0,1-1.4,1.59,6.62,6.62,0,0,1-2,1,9,9,0,0,1-2.47.34,8.23,8.23,0,0,1-2.68-.42,14.28,14.28,0,0,1-2.17-.93,10.18,10.18,0,0,1-1.51-1c-.38-.32-.62-.52-.73-.59q-.37-.35-.84.15L532,555c-.16.21-.21.37-.16.48a.87.87,0,0,0,.27.32,8.92,8.92,0,0,0,.84.68Zm22.29-5.85a13.46,13.46,0,0,0,2.94,4.32,14.28,14.28,0,0,0,4.39,2.9,14.23,14.23,0,0,0,10.78,0,14.14,14.14,0,0,0,4.41-2.9,13.46,13.46,0,0,0,2.94-4.32,13.64,13.64,0,0,0-2.94-15,14.2,14.2,0,0,0-4.41-2.92,14,14,0,0,0-10.78,0,14.34,14.34,0,0,0-4.39,2.92,13.69,13.69,0,0,0-2.94,15Zm1.57-10a12.12,12.12,0,0,1,6.41-6.39,12.37,12.37,0,0,1,9.46,0,12.63,12.63,0,0,1,3.85,2.58,12.11,12.11,0,0,1,2.6,3.81,11.54,11.54,0,0,1,1,4.69,11.33,11.33,0,0,1-1,4.66,12.29,12.29,0,0,1-15.91,6.35,11.86,11.86,0,0,1-3.83-2.56,12.3,12.3,0,0,1-2.58-3.79,11.33,11.33,0,0,1-1-4.66,11.54,11.54,0,0,1,1-4.69ZM589.61,558c0,.33.16.49.5.49h13.52c.33,0,.49-.14.49-.42v-.68a.77.77,0,0,0-.07-.34q-.07-.15-.42-.15H591.41V532.44a.49.49,0,0,0-.14-.34A.41.41,0,0,0,591,532h-.84c-.34,0-.5.16-.5.49V558Zm19.17-9a11,11,0,0,0,.7,4,9.09,9.09,0,0,0,2,3.12,9,9,0,0,0,3.16,2,11.05,11.05,0,0,0,4.11.74,11.25,11.25,0,0,0,4.16-.74,9.22,9.22,0,0,0,3.18-2,9,9,0,0,0,2-3.12,11,11,0,0,0,.7-4V532.44a.43.43,0,0,0-.49-.49h-.77c-.36,0-.54.16-.54.49v16.38a9.59,9.59,0,0,1-.57,3.36,7.35,7.35,0,0,1-1.65,2.63,7.19,7.19,0,0,1-2.6,1.71,9.38,9.38,0,0,1-3.45.61,9.28,9.28,0,0,1-3.43-.61,7.2,7.2,0,0,1-2.58-1.73,7.34,7.34,0,0,1-1.63-2.65,9.79,9.79,0,0,1-.55-3.36V532.44a.44.44,0,0,0-.5-.49h-.81a.43.43,0,0,0-.49.49V549ZM643,558a.44.44,0,0,0,.5.49h.69c.41,0,.61-.16.61-.49V533.58h7.35a.44.44,0,0,0,.5-.49v-.65c0-.33-.16-.49-.5-.49H635.72c-.34,0-.5.16-.5.49V533c0,.38.16.57.5.57H643V558Zm16.17,0a.44.44,0,0,0,.5.49h.81a.57.57,0,0,0,.36-.13A.42.42,0,0,0,661,558V532.44c0-.33-.16-.49-.5-.49h-.84a.44.44,0,0,0-.5.49V558ZM670,550.59a13.65,13.65,0,0,0,2.95,4.32,14,14,0,0,0,4.39,2.9,13.59,13.59,0,0,0,5.38,1.06,13.8,13.8,0,0,0,5.4-1.06,14.1,14.1,0,0,0,4.4-2.9,13.49,13.49,0,0,0,2.95-4.32,13.61,13.61,0,0,0-2.95-15,14.15,14.15,0,0,0-4.4-2.92,13.63,13.63,0,0,0-5.4-1.08,13.43,13.43,0,0,0-5.38,1.08,14.1,14.1,0,0,0-4.39,2.92,13.73,13.73,0,0,0-2.95,15Zm1.57-10a12.18,12.18,0,0,1,6.42-6.39,12.37,12.37,0,0,1,9.46,0,12.63,12.63,0,0,1,3.85,2.58,12.45,12.45,0,0,1,2.6,3.81,11.54,11.54,0,0,1,1,4.69,11.33,11.33,0,0,1-1,4.66,12.36,12.36,0,0,1-2.6,3.79A12.36,12.36,0,0,1,678,556.27a11.76,11.76,0,0,1-3.83-2.56,12.33,12.33,0,0,1-2.59-3.79,11.33,11.33,0,0,1-.95-4.66,11.53,11.53,0,0,1,.95-4.69ZM704.37,558a.44.44,0,0,0,.5.49h.73a.44.44,0,0,0,.5-.49V534.94h0l18.3,23.63a.68.68,0,0,0,.62.3h.11a.88.88,0,0,0,.42-.11.41.41,0,0,0,.19-.38V532.44a.43.43,0,0,0-.49-.49h-.77a.44.44,0,0,0-.5.49v22.83h0l-18.15-23.4a.67.67,0,0,0-.61-.3H705a.62.62,0,0,0-.4.13.43.43,0,0,0-.18.36V558Zm30.49-1.56a12.25,12.25,0,0,0,1.7,1,13.88,13.88,0,0,0,2.46,1,10.8,10.8,0,0,0,3.12.42,11.07,11.07,0,0,0,3.16-.45,8.62,8.62,0,0,0,2.66-1.33A6.73,6.73,0,0,0,749.8,555a5.77,5.77,0,0,0,.69-2.84,6.32,6.32,0,0,0-.6-2.84,6.39,6.39,0,0,0-1.72-2.15,12,12,0,0,0-2.72-1.63c-1.06-.46-2.24-.93-3.54-1.38a21.37,21.37,0,0,1-2.63-1,8.86,8.86,0,0,1-2-1.21,4.65,4.65,0,0,1-1.28-1.57,4.79,4.79,0,0,1-.44-2.11,4.71,4.71,0,0,1,.34-1.69,4.58,4.58,0,0,1,1.13-1.63,6.59,6.59,0,0,1,2-1.23,8,8,0,0,1,3-.49,8.53,8.53,0,0,1,2.11.26,15.06,15.06,0,0,1,1.76.59,10.27,10.27,0,0,1,1.24.61l.52.32a.52.52,0,0,0,.84-.19l.31-.49a.5.5,0,0,0,.08-.51.94.94,0,0,0-.23-.29,12.22,12.22,0,0,0-1.88-1,13.89,13.89,0,0,0-2.09-.68,10.83,10.83,0,0,0-2.62-.3,10.09,10.09,0,0,0-3.83.64,7.4,7.4,0,0,0-2.55,1.65,6.48,6.48,0,0,0-1.43,2.18,6.1,6.1,0,0,0-.46,2.24,6.71,6.71,0,0,0,.53,2.79,6.16,6.16,0,0,0,1.5,2,9.45,9.45,0,0,0,2.31,1.48c.91.41,1.93.81,3,1.19s2.18.77,3.1,1.18a10.76,10.76,0,0,1,2.34,1.36,5.6,5.6,0,0,1,1.47,1.71,4.45,4.45,0,0,1,.52,2.2,4.37,4.37,0,0,1-.52,2.16,4.74,4.74,0,0,1-1.4,1.59,6.56,6.56,0,0,1-2,1,9.11,9.11,0,0,1-2.48.34,8.23,8.23,0,0,1-2.68-.42,14.59,14.59,0,0,1-2.16-.93,9.67,9.67,0,0,1-1.51-1c-.39-.32-.63-.52-.73-.59q-.39-.35-.84.15l-.35.45q-.23.31-.15.48a.87.87,0,0,0,.27.32,7.71,7.71,0,0,0,.84.68Z" transform="translate(-525 -424)" style="fill:#1c3040"/><path d="M668.93,592V579l11.13-6.47L691.2,579v13l-11.14,6.48L668.93,592Zm-1-13.52v14.08l12.11,7,12.12-7V578.46l-12.12-7.05L668,578.46ZM699.37,592V579l11.15-6.47L721.66,579v13l-11.14,6.47L699.37,592Zm-1-13.52v14.08l12.12,7,12.11-7V578.46l-12.11-7.05-12.12,7.05ZM729.82,592V579L741,572.55,752.1,579v13L741,598.45,729.82,592Zm-1-13.52v14.08l12.12,7,12.11-7V578.46L741,571.41l-12.12,7.05Z" transform="translate(-525 -424)" style="fill:#1c3040"/><path d="M530.13,591.55a13.85,13.85,0,0,0,2.93,4.39,13.62,13.62,0,0,0,4.34,2.95,13.21,13.21,0,0,0,5.32,1.08,16.34,16.34,0,0,0,3.4-.33,23.31,23.31,0,0,0,2.72-.73,13.21,13.21,0,0,0,1.92-.81,9.51,9.51,0,0,0,1-.6,3.4,3.4,0,0,0,.38-.38,1,1,0,0,0,.15-.62v-8.94a.43.43,0,0,0-.15-.33.5.5,0,0,0-.34-.13h-7.74a.52.52,0,0,0-.4.12.53.53,0,0,0-.09.34v.77a.66.66,0,0,0,.09.39.56.56,0,0,0,.4.11h6.46v7.25c-.11.07-.35.23-.74.46a9.46,9.46,0,0,1-1.61.71,19.42,19.42,0,0,1-2.39.66,15.52,15.52,0,0,1-3.12.28,11.15,11.15,0,0,1-4.6-1,11.82,11.82,0,0,1-6.23-6.45,12.7,12.7,0,0,1,0-9.44,11.82,11.82,0,0,1,6.23-6.45,11.16,11.16,0,0,1,4.6-1,10.88,10.88,0,0,1,4.36.87,12.28,12.28,0,0,1,3.61,2.37c.23.23.44.23.64,0l.3-.31c.1-.1.2-.22.3-.34a.45.45,0,0,0,.14-.35.64.64,0,0,0-.17-.35,13.9,13.9,0,0,0-4.06-2.66,13.91,13.91,0,0,0-10.4.18,13.76,13.76,0,0,0-7.27,7.37,13.79,13.79,0,0,0-1.08,5.44,13.61,13.61,0,0,0,1.08,5.41Zm28.4,7.53a.44.44,0,0,0,.5.5h.68c.4,0,.6-.17.6-.5v-9.9H568a5.8,5.8,0,0,0,.7,0l5.4,10a1,1,0,0,0,.3.36.9.9,0,0,0,.49.1h1c.21,0,.33-.08.36-.23a.56.56,0,0,0-.09-.46l-5.51-10a8.54,8.54,0,0,0,5.75-5.39,8,8,0,0,0,.48-2.78,7.9,7.9,0,0,0-.66-3.25,7.81,7.81,0,0,0-1.82-2.56,8.45,8.45,0,0,0-2.68-1.7,8.63,8.63,0,0,0-3.26-.61H559a.44.44,0,0,0-.5.5v26Zm1.82-11.67v-13h7.92a7,7,0,0,1,2.59.48A6.65,6.65,0,0,1,573,576.2a6.19,6.19,0,0,1,1.46,2,6.07,6.07,0,0,1,.52,2.54,6.58,6.58,0,0,1-.52,2.64A6.69,6.69,0,0,1,573,585.5a6.82,6.82,0,0,1-2.13,1.41,6.72,6.72,0,0,1-2.57.5Zm21.22,4.14a13.67,13.67,0,0,0,7.23,7.34,13.12,13.12,0,0,0,5.3,1.08,13.26,13.26,0,0,0,5.33-1.08,13.62,13.62,0,0,0,7.25-7.34,14,14,0,0,0,1.05-5.41,14.13,14.13,0,0,0-1.05-5.44,13.88,13.88,0,0,0-2.91-4.41,14.1,14.1,0,0,0-4.34-3,13.11,13.11,0,0,0-5.33-1.1,13,13,0,0,0-5.3,1.1,14,14,0,0,0-4.32,3,13.72,13.72,0,0,0-2.91,4.41,14.14,14.14,0,0,0-1.06,5.44,14,14,0,0,0,1.06,5.41Zm1.55-10.17a12.53,12.53,0,0,1,2.55-3.87,11.77,11.77,0,0,1,3.77-2.62,11.7,11.7,0,0,1,9.33,0,12.08,12.08,0,0,1,3.79,2.62,12.4,12.4,0,0,1,2.57,3.87,12,12,0,0,1,.94,4.76,11.82,11.82,0,0,1-.94,4.73,12.59,12.59,0,0,1-2.57,3.86,12,12,0,0,1-3.79,2.6,12,12,0,0,1-9.33,0,11.71,11.71,0,0,1-3.77-2.6,12.72,12.72,0,0,1-2.55-3.86,11.82,11.82,0,0,1-1-4.73,12,12,0,0,1,1-4.76ZM613,589.91a11.3,11.3,0,0,0,.7,4.05,8.91,8.91,0,0,0,5.09,5.25,11.33,11.33,0,0,0,8.16,0,9.17,9.17,0,0,0,3.13-2.08,8.88,8.88,0,0,0,2-3.17,11.3,11.3,0,0,0,.7-4.05V573.12c0-.34-.16-.5-.49-.5h-.75c-.36,0-.53.16-.53.5v16.64a9.88,9.88,0,0,1-.57,3.41,7.65,7.65,0,0,1-1.62,2.67,7.22,7.22,0,0,1-2.57,1.74,9,9,0,0,1-3.4.61,8.82,8.82,0,0,1-3.38-.61,7.11,7.11,0,0,1-2.54-1.76,7.51,7.51,0,0,1-1.61-2.69,10.38,10.38,0,0,1-.55-3.41v-16.6c0-.34-.16-.5-.49-.5h-.79c-.33,0-.49.16-.49.5v16.79Zm26.74,9.17a.44.44,0,0,0,.49.5h.68c.4,0,.6-.17.6-.5V590h6.87a8.3,8.3,0,0,0,3.29-.66,8.07,8.07,0,0,0,2.7-1.83,8.69,8.69,0,0,0,1.83-2.77,8.87,8.87,0,0,0,.68-3.49,8.69,8.69,0,0,0-2.51-6.16,8.5,8.5,0,0,0-6-2.46h-8.12c-.33,0-.49.16-.49.5v26Zm1.77-10.86V574.43h6.72a7.33,7.33,0,0,1,2.65.48,6.68,6.68,0,0,1,2.19,1.36,6.8,6.8,0,0,1,1.49,2.14,7,7,0,0,1,.54,2.8,7.38,7.38,0,0,1-.54,2.87,7,7,0,0,1-1.49,2.21,6.76,6.76,0,0,1-2.18,1.43,6.9,6.9,0,0,1-2.62.5Z" transform="translate(-525 -424)" style="fill:#1c3040"/></svg>